<?xml version="1.0" encoding="utf-8"?>
<!-- Generator: Adobe Illustrator 17.0.0, SVG Export Plug-In . SVG Version: 6.00 Build 0)  -->
<!DOCTYPE svg PUBLIC "-//W3C//DTD SVG 1.1//EN" "http://www.w3.org/Graphics/SVG/1.1/DTD/svg11.dtd">
<svg version="1.1" xmlns="http://www.w3.org/2000/svg" xmlns:xlink="http://www.w3.org/1999/xlink" x="0px" y="0px"
	 width="850.394px" height="850.394px" viewBox="0 0 850.394 850.394" enable-background="new 0 0 850.394 850.394"
	 xml:space="preserve">
<g id="traços">
	<path fill="none" d="M15.879,362.35"/>
</g>
<g id="Camada_2">
	<circle fill="#383535" cx="428.016" cy="428.543" r="326"/>
	<g>
		<path fill="#FFFFFF" d="M608.915,314.94c0.001,2.684-0.02-14.399-0.02-14.399c0.266-4.983-2.119-10.168-6.096-14.56
			c-4.346-4.8-9.722-9.3-15.075-10.09h-33.945v39.04l0,68.494l0,37.908l33.945-0.328c5.353-0.79,10.729-5.29,15.075-10.09
			c3.977-4.392,6.362-9.577,6.096-14.56l0.005-12.931l0.006-16.134c0.197-5.385-2.653-10.728-7.453-15.075
			c-1.705-1.544-3.252-2.761-4.984-3.767c1.68-0.993,3.329-2.269,4.984-3.767c4.8-4.346,7.65-9.69,7.453-15.075L608.9,314.94"/>
		<polygon fill="#FFFFFF" points="423.273,275.891 435.116,275.891 435.116,409.442 469.969,409.442 469.969,420.871 
			423.273,420.871 		"/>
		<polygon fill="#FFFFFF" points="498.714,275.891 517.993,275.891 540.735,421.333 528.729,421.333 523.072,383.93 
			493.865,384.045 488.44,421.333 476.203,421.333 		"/>
		<polygon fill="#FFFFFF" points="569.811,431.03 589.089,431.03 611.831,576.472 599.826,576.472 594.169,539.069 564.962,539.185 
			559.537,576.472 547.3,576.472 		"/>
		<path fill="none" d="M407.862,275.891"/>
		<path fill="none" d="M587.724,346.099"/>
		<path fill="#FFFFFF" d="M532.307,549.155V430.828h11.544v117.836v3.521l-0.491,4.445l-0.779,3.059
			c-1.291,8.228-13.464,18.168-26.999,18.168c-13.534,0-25.708-9.94-26.999-18.168l-0.779-3.059l-0.491-4.445v-3.521V430.828h11.544
			l-0.112,118.622c0,9.384,7.608,16.992,16.992,16.992c9.384,0,16.633-7.967,16.633-17.351"/>
		<path fill="#FFFFFF" d="M422.876,471.402V576.27l11.999-0.087v-67.044h14.95c2.136-0.094,8.347,2.226,10.065,3.756
			c4.712,4.197,6.386,7.544,6.72,13.126v50.452h11.96v-51.473c0.197-5.385-3.221-13.5-8.02-17.847
			c-1.705-1.544-3.252-2.761-4.984-3.767c1.68-0.993,3.329-2.269,4.984-3.767c4.8-4.346,7.65-9.69,7.453-15.075l-0.005-13.141
			l-0.005-14.08c0.266-4.983-2.12-12.012-6.096-16.404c-4.346-4.8-12.706-9.3-18.059-10.09h-30.961V471.402z"/>
		<path fill="#383535" d="M466.523,471.388l0.013,10.112c0.155,4.129-2.027,8.228-5.704,11.564c-3.364,3.052-6.701,4.9-10.522,4.699
			l-15.931,0.014l-0.023-26.361l-0.026-29.051l15.931-0.014c4.105,0.602,8.228,2.027,11.564,5.704
			c3.052,3.364,4.885,7.339,4.684,11.159L466.523,471.388z"/>
		<path fill="none" d="M624.141,312.255"/>
		<path fill="#383535" d="M597.433,314.94l0.004,11.744c0.151,4.129-2.034,8.226-5.714,11.559
			c-3.367,3.049-6.706,4.894-10.526,4.689h-15.931v-28.001v-27.411h15.931c4.104,0.605,8.226,2.034,11.559,5.714
			c3.049,3.367,4.878,7.343,4.674,11.164L597.433,314.94z"/>
		<path fill="#383535" d="M565.266,383.424v26.364h15.931c3.821,0.204,7.159-1.64,10.526-4.689c3.68-3.332,5.865-7.429,5.714-11.559
			l-0.004-10.116l-0.004-12.169c0.204-3.821-1.625-7.796-4.674-11.164c-3.333-3.68-7.43-5.865-11.559-5.714h-15.931V383.424z"/>
		<rect x="231.891" y="240.96" fill="#FFFFFF" width="161.044" height="375.165"/>
		<rect x="243.631" y="252.7" fill="#383535" width="137.564" height="351.685"/>
	</g>
</g>
</svg>
