<?xml version="1.0" encoding="utf-8"?>
<!-- Generator: Adobe Illustrator 17.0.0, SVG Export Plug-In . SVG Version: 6.00 Build 0)  -->
<!DOCTYPE svg PUBLIC "-//W3C//DTD SVG 1.1//EN" "http://www.w3.org/Graphics/SVG/1.1/DTD/svg11.dtd">
<svg version="1.1" id="Layer_1" xmlns="http://www.w3.org/2000/svg" xmlns:xlink="http://www.w3.org/1999/xlink" x="0px" y="0px"
	 width="772px" height="751px" viewBox="0 0 772 751" enable-background="new 0 0 772 751" xml:space="preserve">
<g>
	<g>
		<g>
			<g>
				<g>
					<g>
						<path fill="#EC6A78" d="M577.217,611.79c-5.068,0-9.176-4.108-9.176-9.176V225.849c0-11.973-9.74-21.714-21.712-21.714
							H150.466c-5.068,0-9.176-4.108-9.176-9.176s4.108-9.176,9.176-9.176h395.863c22.092,0,40.064,17.974,40.064,40.066v376.765
							C586.393,607.682,582.285,611.79,577.217,611.79z"/>
					</g>
				</g>
			</g>
			<g>
				<g>
					<g>
						<path fill="#EC6A78" d="M150.466,185.783c5.068,0,9.176,4.108,9.176,9.176v376.765c0,11.973,9.74,21.714,21.712,21.714
							h395.863c5.068,0,9.176,4.108,9.176,9.176s-4.108,9.176-9.176,9.176H181.354c-22.092,0-40.064-17.974-40.064-40.066V194.959
							C141.29,189.891,145.398,185.783,150.466,185.783z"/>
					</g>
				</g>
			</g>
			<g>
				<g>
					<g>
						<g>
							<path fill="#4E4D4D" d="M225.732,368.668c-4.028-0.125-7.679-0.63-7.679-1.889V262.294c0-2.392,16.491-2.392,16.491,0v91.142
								h52.62c2.392,0,2.392,15.232,0,15.232H225.732z"/>
						</g>
					</g>
				</g>
			</g>
			<g>
				<g>
					<g>
						<g>
							<g>
								<path fill="#4E4D4D" d="M450.421,352.429h-0.023v-32.102h0.023v-14.854h-0.023v-28.703h0.023v-16.239h-7.198
									c-4.406-0.125-9.315,0.377-9.315,1.385v105.367c0,0.63,2.266,1.132,7.301,1.385h9.213V352.429z"/>
							</g>
						</g>
					</g>
				</g>
				<g>
					<g>
						<g>
							<g>
								<path fill="#EC6A78" d="M501.367,310.886c4.784-4.658,7.805-11.078,7.805-18.757c0-18.002-15.862-31.597-33.864-31.597
									h-5.641v16.239h5.641c9.945,0,17.498,7.302,17.498,15.359c0,7.427-6.546,12.715-15.61,13.344h-7.529v14.854h14.453
									c9.189,0.882,15.609,9.189,15.609,16.743c0,7.931-7.175,15.358-17.121,15.358h-12.942v16.239h12.942
									c18.002,0,33.486-13.595,33.486-31.597C516.096,325.993,510.179,316.552,501.367,310.886z"/>
							</g>
						</g>
					</g>
				</g>
			</g>
			<g>
				<g>
					<g>
						<g>
							<g>
								<path fill="#4E4D4D" d="M234.573,489.467h-0.028v-36.76h0.028v-16.364h-8.589c-4.532,0.125-7.931,0.755-7.931,1.51v105.242
									c0,1.887,16.491,1.887,16.491,0v-38.774h0.028V489.467z"/>
							</g>
						</g>
					</g>
				</g>
				<g>
					<g>
						<g>
							<g>
								<path fill="#EC6A78" d="M296.858,470.835c0-17.876-15.862-34.366-33.864-34.492h-15.076v16.364h15.076
									c9.945,0,17.499,10.198,17.499,18.128c0,7.931-7.428,18.757-17.499,18.632h-15.076v14.854h3.998
									c2.644,0,4.028,1.889,4.784,3.399l20.519,34.996c1.259,2.393,19.638,2.518,19.638,0.127l-23.037-39.781
									C286.913,499.789,296.858,485.061,296.858,470.835z"/>
							</g>
						</g>
					</g>
				</g>
			</g>
			<g>
				<g>
					<g>
						<g>
							<path fill="#EC6A78" d="M395.011,438.358v59.039c0,14.431-9.998,26.468-23.338,29.782v16.847
								c22.536-3.547,39.703-23.081,39.703-46.629v-59.039C411.377,435.965,395.011,435.965,395.011,438.358z"/>
						</g>
					</g>
				</g>
			</g>
			<g>
				<g>
					<g>
						<g>
							<path fill="#4E4D4D" d="M356.666,527.177c-13.309-3.317-23.212-15.351-23.212-29.78v-59.039c0-2.393-16.491-2.393-16.491,0
								v59.039c0,23.537,17.256,43.064,39.703,46.624V527.177z"/>
						</g>
					</g>
				</g>
			</g>
			<g>
				<g>
					<g>
						<g>
							<g>
								<path fill="#EC6A78" d="M481.998,438.356c-0.756-1.385-4.658-1.887-9.82-1.887c-3.404,0-6.269,0.213-8.059,0.731
									l7.931,22.309l0.001-0.004l12.966,36.382h-0.034l12.192,34.294l4.46,12.535c1.259,2.393,17.372,2.518,17.372,0
									L481.998,438.356z"/>
							</g>
						</g>
					</g>
				</g>
				<g>
					<g>
						<g>
							<g>
								<path fill="#4E4D4D" d="M471.688,495.887h-12.601l6.317-17.726l-8.651-24.401l-31.655,88.955c0,2.518,16.113,2.393,17.372,0
									l11.329-31.848h23.2L471.688,495.887z"/>
							</g>
						</g>
					</g>
				</g>
			</g>
			<g>
				<g>
					<g>
						<g>
							<path d="M378.961,366.779"/>
						</g>
					</g>
				</g>
			</g>
			<g>
				<g>
					<g>
						<g>
							<g>
								<path fill="#4E4D4D" d="M363.805,319.95h-12.602l6.317-17.726l-8.651-24.401l-31.655,88.957c0,2.518,16.113,2.393,17.372,0
									l11.329-31.848h23.201L363.805,319.95z"/>
							</g>
						</g>
					</g>
				</g>
				<g>
					<g>
						<g>
							<g>
								<path fill="#EC6A78" d="M374.115,262.419c-0.756-1.385-4.658-1.887-9.82-1.887c-3.402,0-6.267,0.212-8.056,0.73l7.939,22.33
									l12.957,36.358h-0.031l16.649,46.829c1.258,2.393,17.372,2.518,17.372,0L374.115,262.419z"/>
							</g>
						</g>
					</g>
				</g>
			</g>
			<g>
				<g>
					<g>
						<g>
							<g>
								<rect x="450.421" y="352.429" fill="#4E4D4D" width="19.246" height="16.239"/>
							</g>
						</g>
					</g>
				</g>
				<g>
					<g>
						<g>
							<g>
								<rect x="450.421" y="305.474" fill="#4E4D4D" width="19.246" height="14.854"/>
							</g>
						</g>
					</g>
				</g>
				<g>
					<g>
						<g>
							<g>
								<rect x="450.421" y="260.532" fill="#4E4D4D" width="19.246" height="16.239"/>
							</g>
						</g>
					</g>
				</g>
				<g>
					<g>
						<g>
							<g>
								<rect x="234.572" y="436.344" fill="#4E4D4D" width="18.065" height="16.364"/>
							</g>
						</g>
					</g>
				</g>
				<g>
					<g>
						<g>
							<g>
								<rect x="234.572" y="489.4" fill="#4E4D4D" width="18.065" height="14.945"/>
							</g>
						</g>
					</g>
				</g>
				<g>
					<g>
						<g>
							<polygon fill="#4E4D4D" points="356.666,527.177 371.673,527.179 371.673,544.026 356.666,544.021 							"/>
						</g>
					</g>
				</g>
				<g>
					<g>
						<g>
							<g>
								<polygon fill="#4E4D4D" points="464.12,437.2 456.752,453.761 465.403,478.162 472.051,459.51 								"/>
							</g>
						</g>
					</g>
				</g>
				<g>
					<g>
						<g>
							<g>
								<polyline fill="#4E4D4D" points="471.688,495.887 485.019,495.887 490.203,510.566 476.999,510.868 								"/>
							</g>
						</g>
					</g>
				</g>
				<g>
					<g>
						<g>
							<g>
								<polygon fill="#4E4D4D" points="356.274,261.266 348.906,277.827 357.557,302.228 364.205,283.575 								"/>
							</g>
						</g>
					</g>
				</g>
				<g>
					<g>
						<g>
							<g>
								<polyline fill="#4E4D4D" points="363.842,319.953 377.173,319.953 382.357,334.632 369.153,334.934 								"/>
							</g>
						</g>
					</g>
				</g>
			</g>
			<g>
				<g>
					<g>
						<g>
							<path fill="#EC6A78" d="M234.544,353.436h52.62c2.392,0,2.392,15.232,0,15.232h-61.433c-4.028-0.125-7.679-0.63-7.679-1.889
								v-13.343H234.544z"/>
						</g>
					</g>
				</g>
			</g>
		</g>
		<g>
			<g>
				<path fill="#FF7276" stroke="#4E4D4D" stroke-miterlimit="10" d="M603.825,208.619"/>
			</g>
		</g>
		<g>
			<g>
				<g>
					<path fill="#EC6A78" d="M623.534,565.473c-5.068,0-9.176-4.108-9.176-9.176V179.532c0-11.973-9.74-21.714-21.712-21.714
						H196.783c-5.068,0-9.176-4.108-9.176-9.176c0-5.068,4.108-9.176,9.176-9.176h395.863c22.092,0,40.064,17.974,40.064,40.066
						v376.765C632.71,561.365,628.602,565.473,623.534,565.473z"/>
				</g>
			</g>
		</g>
	</g>
	<g>
		<g>
			<g>
				<g>
					<path fill="#4E4D4D" d="M577.217,611.79c-5.068,0-9.176-4.108-9.176-9.176V225.849c0-11.973-9.74-21.714-21.712-21.714H150.466
						c-5.068,0-9.176-4.108-9.176-9.176s4.108-9.176,9.176-9.176h395.863c22.092,0,40.064,17.974,40.064,40.066v376.765
						C586.393,607.682,582.285,611.79,577.217,611.79z"/>
				</g>
			</g>
		</g>
		<g>
			<g>
				<g>
					<path fill="#4E4D4D" d="M150.466,185.783c5.068,0,9.176,4.108,9.176,9.176v376.765c0,11.973,9.74,21.714,21.712,21.714h395.863
						c5.068,0,9.176,4.108,9.176,9.176s-4.108,9.176-9.176,9.176H181.354c-22.092,0-40.064-17.974-40.064-40.066V194.959
						C141.29,189.891,145.398,185.783,150.466,185.783z"/>
				</g>
			</g>
		</g>
		<g>
			<g>
				<g>
					<g>
						<path fill="#4E4D4D" d="M225.732,368.668c-4.028-0.125-7.679-0.63-7.679-1.889V262.294c0-2.392,16.491-2.392,16.491,0v91.142
							h52.62c2.392,0,2.392,15.232,0,15.232H225.732z"/>
					</g>
				</g>
			</g>
		</g>
		<g>
			<g>
				<g>
					<g>
						<g>
							<path fill="#4E4D4D" d="M450.421,352.429h-0.023v-32.102h0.023v-14.854h-0.023v-28.703h0.023v-16.239h-7.198
								c-4.406-0.125-9.315,0.377-9.315,1.385v105.367c0,0.63,2.266,1.132,7.301,1.385h9.213V352.429z"/>
						</g>
					</g>
				</g>
			</g>
			<g>
				<g>
					<g>
						<g>
							<path fill="#EC6A78" d="M501.367,310.886c4.784-4.658,7.805-11.078,7.805-18.757c0-18.002-15.862-31.597-33.864-31.597
								h-5.641v16.239h5.641c9.945,0,17.498,7.302,17.498,15.359c0,7.427-6.546,12.715-15.61,13.344h-7.529v14.854h14.453
								c9.189,0.882,15.609,9.189,15.609,16.743c0,7.931-7.175,15.358-17.121,15.358h-12.942v16.239h12.942
								c18.002,0,33.486-13.595,33.486-31.597C516.096,325.993,510.179,316.552,501.367,310.886z"/>
						</g>
					</g>
				</g>
			</g>
		</g>
		<g>
			<g>
				<g>
					<g>
						<g>
							<path fill="#4E4D4D" d="M234.573,489.467h-0.028v-36.76h0.028v-16.364h-8.589c-4.532,0.125-7.931,0.755-7.931,1.51v105.242
								c0,1.887,16.491,1.887,16.491,0v-38.774h0.028V489.467z"/>
						</g>
					</g>
				</g>
			</g>
			<g>
				<g>
					<g>
						<g>
							<path fill="#EC6A78" d="M296.858,470.835c0-17.876-15.862-34.366-33.864-34.492h-15.076v16.364h15.076
								c9.945,0,17.499,10.198,17.499,18.128c0,7.931-7.428,18.757-17.499,18.632h-15.076v14.854h3.998
								c2.644,0,4.028,1.889,4.784,3.399l20.519,34.996c1.259,2.393,19.638,2.518,19.638,0.127l-23.037-39.781
								C286.913,499.789,296.858,485.061,296.858,470.835z"/>
						</g>
					</g>
				</g>
			</g>
		</g>
		<g>
			<g>
				<g>
					<g>
						<path fill="#EC6A78" d="M395.011,438.358v59.039c0,14.431-9.998,26.468-23.338,29.782v16.847
							c22.536-3.547,39.703-23.081,39.703-46.629v-59.039C411.377,435.965,395.011,435.965,395.011,438.358z"/>
					</g>
				</g>
			</g>
		</g>
		<g>
			<g>
				<g>
					<g>
						<path fill="#4E4D4D" d="M356.666,527.177c-13.309-3.317-23.212-15.351-23.212-29.78v-59.039c0-2.393-16.491-2.393-16.491,0
							v59.039c0,23.537,17.256,43.064,39.703,46.624V527.177z"/>
					</g>
				</g>
			</g>
		</g>
		<g>
			<g>
				<g>
					<g>
						<g>
							<path fill="#EC6A78" d="M481.998,438.356c-0.756-1.385-4.658-1.887-9.82-1.887c-3.404,0-6.269,0.213-8.059,0.731
								l7.931,22.309l0.001-0.004l12.966,36.382h-0.034l12.192,34.294l4.46,12.535c1.259,2.393,17.372,2.518,17.372,0
								L481.998,438.356z"/>
						</g>
					</g>
				</g>
			</g>
			<g>
				<g>
					<g>
						<g>
							<path fill="#4E4D4D" d="M471.688,495.887h-12.601l6.317-17.726l-8.651-24.401l-31.655,88.955c0,2.518,16.113,2.393,17.372,0
								l11.329-31.848h23.2L471.688,495.887z"/>
						</g>
					</g>
				</g>
			</g>
		</g>
		<g>
			<g>
				<g>
					<g>
						<path d="M378.961,366.779"/>
					</g>
				</g>
			</g>
		</g>
		<g>
			<g>
				<g>
					<g>
						<g>
							<path fill="#4E4D4D" d="M363.805,319.95h-12.602l6.317-17.726l-8.651-24.401l-31.655,88.957c0,2.518,16.113,2.393,17.372,0
								l11.329-31.848h23.201L363.805,319.95z"/>
						</g>
					</g>
				</g>
			</g>
			<g>
				<g>
					<g>
						<g>
							<path fill="#EC6A78" d="M374.115,262.419c-0.756-1.385-4.658-1.887-9.82-1.887c-3.402,0-6.267,0.212-8.056,0.73l7.939,22.33
								l12.957,36.358h-0.031l16.649,46.829c1.258,2.393,17.372,2.518,17.372,0L374.115,262.419z"/>
						</g>
					</g>
				</g>
			</g>
		</g>
		<g>
			<g>
				<g>
					<g>
						<g>
							<rect x="450.421" y="352.429" fill="#4E4D4D" width="19.246" height="16.239"/>
						</g>
					</g>
				</g>
			</g>
			<g>
				<g>
					<g>
						<g>
							<rect x="450.421" y="305.474" fill="#4E4D4D" width="19.246" height="14.854"/>
						</g>
					</g>
				</g>
			</g>
			<g>
				<g>
					<g>
						<g>
							<rect x="450.421" y="260.532" fill="#4E4D4D" width="19.246" height="16.239"/>
						</g>
					</g>
				</g>
			</g>
			<g>
				<g>
					<g>
						<g>
							<rect x="234.572" y="436.344" fill="#4E4D4D" width="18.065" height="16.364"/>
						</g>
					</g>
				</g>
			</g>
			<g>
				<g>
					<g>
						<g>
							<rect x="234.572" y="489.4" fill="#4E4D4D" width="18.065" height="14.945"/>
						</g>
					</g>
				</g>
			</g>
			<g>
				<g>
					<g>
						<polygon fill="#4E4D4D" points="356.666,527.177 371.673,527.179 371.673,544.026 356.666,544.021 						"/>
					</g>
				</g>
			</g>
			<g>
				<g>
					<g>
						<g>
							<polygon fill="#4E4D4D" points="464.12,437.2 456.752,453.761 465.403,478.162 472.051,459.51 							"/>
						</g>
					</g>
				</g>
			</g>
			<g>
				<g>
					<g>
						<g>
							<polyline fill="#4E4D4D" points="471.688,495.887 485.019,495.887 490.203,510.566 476.999,510.868 							"/>
						</g>
					</g>
				</g>
			</g>
			<g>
				<g>
					<g>
						<g>
							<polygon fill="#4E4D4D" points="356.274,261.266 348.906,277.827 357.557,302.228 364.205,283.575 							"/>
						</g>
					</g>
				</g>
			</g>
			<g>
				<g>
					<g>
						<g>
							<polyline fill="#4E4D4D" points="363.842,319.953 377.173,319.953 382.357,334.632 369.153,334.934 							"/>
						</g>
					</g>
				</g>
			</g>
		</g>
		<g>
			<g>
				<g>
					<g>
						<path fill="#EC6A78" d="M234.544,353.436h52.62c2.392,0,2.392,15.232,0,15.232h-61.433c-4.028-0.125-7.679-0.63-7.679-1.889
							v-13.343H234.544z"/>
					</g>
				</g>
			</g>
		</g>
	</g>
</g>
</svg>
